<svg width="110" height="110" viewBox="0 0 110 110" fill="none" xmlns="http://www.w3.org/2000/svg">
<g filter="url(#filter0_d_171_4481)">
<rect x="19" y="19" width="60" height="60" rx="16" fill="#6E9988"/>
<rect x="20" y="20" width="58" height="58" rx="15" stroke="#8CC8A8" stroke-width="2"/>
<g clip-path="url(#clip0_171_4481)">
<path d="M49.9287 45.5536C50.108 45.5536 50.2809 45.5824 50.4474 45.6304L53.553 41.8236C53.7515 41.5802 54.1197 41.5354 54.3598 41.7403C54.5936 41.9356 54.6256 42.2846 54.4303 42.5215L51.3598 46.2868C51.568 46.5749 51.6928 46.9303 51.6928 47.3145C51.6928 48.0285 51.2638 48.6464 50.6523 48.9218H62.7003C63.1421 48.9218 63.5007 48.5632 63.5007 48.1213V37.9879C63.5007 37.5461 63.1421 37.1875 62.7003 37.1875H47.3961C46.9543 37.1875 46.5957 37.5461 46.5957 37.9879V44.6411L47.3193 45.5568H49.9287V45.5536Z" fill="white"/>
<path d="M39.9446 41.1801C41.7553 41.1801 43.2231 39.7123 43.2231 37.9016C43.2231 36.0909 41.7553 34.623 39.9446 34.623C38.1339 34.623 36.666 36.0909 36.666 37.9016C36.666 39.7123 38.1339 41.1801 39.9446 41.1801Z" fill="white"/>
<path d="M43.3068 62.5773C43.3068 63.0192 42.9482 63.3777 42.5064 63.3777H41.1617C40.7199 63.3777 40.3613 63.0192 40.3613 62.5773V55.8665C40.3613 55.6296 40.1692 55.4375 39.9322 55.4375C39.6953 55.4375 39.5032 55.6296 39.5032 55.8665V62.5453C39.5032 63.0032 39.1286 63.3777 38.6708 63.3777H37.3549C36.913 63.3777 36.5544 63.0192 36.5544 62.5773L36.548 46.3767C36.548 46.159 36.3719 45.9797 36.151 45.9797C35.9333 45.9797 35.754 46.1558 35.754 46.3767V52.6072C35.754 53.049 35.3954 53.4076 34.9536 53.4076H34.3004C33.8586 53.4076 33.5 53.049 33.5 52.6072V44.065C33.5 43.0501 34.3228 42.2305 35.3346 42.2305H42.6249C43.4061 42.2305 44.1457 42.5891 44.6323 43.2006L46.5917 45.6723L47.0048 46.1942C47.0048 46.1942 48.8618 46.1942 49.9311 46.1974C50.373 46.1974 50.7316 46.556 50.7316 46.9978V47.635C50.7316 48.0768 50.373 48.4354 49.9311 48.4354H46.4669C46.1243 48.4354 45.801 48.2785 45.5896 48.0095L44.1297 46.1333C44.056 46.0373 43.9376 45.9796 43.8159 45.9796H43.7166C43.4989 45.9796 43.3197 46.1557 43.3197 46.3766L43.3068 62.5773Z" fill="white"/>
</g>
</g>
<defs>
<filter id="filter0_d_171_4481" x="0" y="0" width="110" height="110" filterUnits="userSpaceOnUse" color-interpolation-filters="sRGB">
<feFlood flood-opacity="0" result="BackgroundImageFix"/>
<feColorMatrix in="SourceAlpha" type="matrix" values="0 0 0 0 0 0 0 0 0 0 0 0 0 0 0 0 0 0 127 0" result="hardAlpha"/>
<feOffset dx="6" dy="6"/>
<feGaussianBlur stdDeviation="12.5"/>
<feComposite in2="hardAlpha" operator="out"/>
<feColorMatrix type="matrix" values="0 0 0 0 0.228326 0 0 0 0 0.946139 0 0 0 0 0.562357 0 0 0 0.34 0"/>
<feBlend mode="normal" in2="BackgroundImageFix" result="effect1_dropShadow_171_4481"/>
<feBlend mode="normal" in="SourceGraphic" in2="effect1_dropShadow_171_4481" result="shape"/>
</filter>
<clipPath id="clip0_171_4481">
<rect width="30" height="30" fill="white" transform="translate(33.5 34)"/>
</clipPath>
</defs>
</svg>
