<svg width="157" height="42" viewBox="0 0 157 42" fill="none" xmlns="http://www.w3.org/2000/svg">
<path d="M37.4014 14.5645L20.2495 25.9134C19.8778 26.1707 19.3633 26.1707 18.9917 25.9134L1.83975 14.5645C1.15368 14.1071 1.15368 13.1066 1.83975 12.6492L18.9917 1.30038C19.3633 1.0431 19.8778 1.0431 20.2495 1.30038L37.4014 12.6492C38.0875 13.1066 38.0875 14.1071 37.4014 14.5645Z" fill="white"/>
<path d="M19.7337 40.8928C9.24242 40.8928 0.723633 32.3741 0.723633 21.8828H8.32765C8.32765 28.1718 13.4446 33.2888 19.7337 33.2888C26.0227 33.2888 31.1397 28.1718 31.1397 21.8828H38.7437C38.7437 32.3741 30.2249 40.8928 19.7337 40.8928Z" fill="white"/>
<path d="M54.1236 29V14.6H63.3236V16.57H56.2136V20.61H62.1236V22.58H56.2136V27.03H63.3236V29H54.1236ZM70.0152 29.3C69.0085 29.3 68.1385 29.05 67.4052 28.55C66.6785 28.05 66.1152 27.37 65.7152 26.51C65.3219 25.6433 65.1252 24.67 65.1252 23.59C65.1252 22.5033 65.3252 21.5333 65.7252 20.68C66.1252 19.82 66.6919 19.1433 67.4252 18.65C68.1652 18.15 69.0419 17.9 70.0552 17.9C71.0752 17.9 71.9319 18.15 72.6252 18.65C73.3252 19.1433 73.8519 19.82 74.2052 20.68C74.5652 21.54 74.7452 22.51 74.7452 23.59C74.7452 24.67 74.5652 25.64 74.2052 26.5C73.8452 27.36 73.3152 28.0433 72.6152 28.55C71.9152 29.05 71.0485 29.3 70.0152 29.3ZM70.3052 27.41C70.9919 27.41 71.5519 27.2467 71.9852 26.92C72.4185 26.5933 72.7352 26.1433 72.9352 25.57C73.1352 24.9967 73.2352 24.3367 73.2352 23.59C73.2352 22.8433 73.1319 22.1833 72.9252 21.61C72.7252 21.0367 72.4119 20.59 71.9852 20.27C71.5652 19.95 71.0285 19.79 70.3752 19.79C69.6819 19.79 69.1119 19.96 68.6652 20.3C68.2185 20.64 67.8852 21.0967 67.6652 21.67C67.4519 22.2433 67.3452 22.8833 67.3452 23.59C67.3452 24.3033 67.4519 24.95 67.6652 25.53C67.8852 26.1033 68.2119 26.56 68.6452 26.9C69.0852 27.24 69.6385 27.41 70.3052 27.41ZM73.2352 29V21.23H72.9952V14.6H75.0952V29H73.2352ZM81.9632 29.29C81.2165 29.29 80.5898 29.17 80.0832 28.93C79.5765 28.69 79.1632 28.3767 78.8432 27.99C78.5298 27.5967 78.2898 27.17 78.1232 26.71C77.9565 26.25 77.8432 25.8 77.7832 25.36C77.7232 24.92 77.6932 24.5333 77.6932 24.2V18.2H79.8132V23.51C79.8132 23.93 79.8465 24.3633 79.9132 24.81C79.9865 25.25 80.1198 25.66 80.3132 26.04C80.5132 26.42 80.7898 26.7267 81.1432 26.96C81.5032 27.1933 81.9698 27.31 82.5432 27.31C82.9165 27.31 83.2698 27.25 83.6032 27.13C83.9365 27.0033 84.2265 26.8033 84.4732 26.53C84.7265 26.2567 84.9232 25.8967 85.0632 25.45C85.2098 25.0033 85.2832 24.46 85.2832 23.82L86.5832 24.31C86.5832 25.29 86.3998 26.1567 86.0332 26.91C85.6665 27.6567 85.1398 28.24 84.4532 28.66C83.7665 29.08 82.9365 29.29 81.9632 29.29ZM85.5332 29V25.88H85.2832V18.2H87.3932V29H85.5332ZM93.1179 29L89.1979 18.2H91.3079L94.1779 26.38L97.0479 18.2H99.1579L95.2379 29H93.1179ZM103.404 29.3C102.604 29.3 101.934 29.1533 101.394 28.86C100.854 28.56 100.444 28.1667 100.164 27.68C99.8908 27.1867 99.7541 26.6467 99.7541 26.06C99.7541 25.5133 99.8508 25.0333 100.044 24.62C100.237 24.2067 100.524 23.8567 100.904 23.57C101.284 23.2767 101.751 23.04 102.304 22.86C102.784 22.72 103.327 22.5967 103.934 22.49C104.541 22.3833 105.177 22.2833 105.844 22.19C106.517 22.0967 107.184 22.0033 107.844 21.91L107.084 22.33C107.097 21.4833 106.917 20.8567 106.544 20.45C106.177 20.0367 105.544 19.83 104.644 19.83C104.077 19.83 103.557 19.9633 103.084 20.23C102.611 20.49 102.281 20.9233 102.094 21.53L100.144 20.93C100.411 20.0033 100.917 19.2667 101.664 18.72C102.417 18.1733 103.417 17.9 104.664 17.9C105.631 17.9 106.471 18.0667 107.184 18.4C107.904 18.7267 108.431 19.2467 108.764 19.96C108.937 20.3133 109.044 20.6867 109.084 21.08C109.124 21.4733 109.144 21.8967 109.144 22.35V29H107.294V26.53L107.654 26.85C107.207 27.6767 106.637 28.2933 105.944 28.7C105.257 29.1 104.411 29.3 103.404 29.3ZM103.774 27.59C104.367 27.59 104.877 27.4867 105.304 27.28C105.731 27.0667 106.074 26.7967 106.334 26.47C106.594 26.1433 106.764 25.8033 106.844 25.45C106.957 25.13 107.021 24.77 107.034 24.37C107.054 23.97 107.064 23.65 107.064 23.41L107.744 23.66C107.084 23.76 106.484 23.85 105.944 23.93C105.404 24.01 104.914 24.09 104.474 24.17C104.041 24.2433 103.654 24.3333 103.314 24.44C103.027 24.54 102.771 24.66 102.544 24.8C102.324 24.94 102.147 25.11 102.014 25.31C101.887 25.51 101.824 25.7533 101.824 26.04C101.824 26.32 101.894 26.58 102.034 26.82C102.174 27.0533 102.387 27.24 102.674 27.38C102.961 27.52 103.327 27.59 103.774 27.59ZM116.361 29.3C115.254 29.3 114.314 29.0533 113.541 28.56C112.767 28.0667 112.174 27.39 111.761 26.53C111.354 25.67 111.147 24.6933 111.141 23.6C111.147 22.4867 111.361 21.5033 111.781 20.65C112.201 19.79 112.801 19.1167 113.581 18.63C114.361 18.1433 115.297 17.9 116.391 17.9C117.571 17.9 118.577 18.1933 119.411 18.78C120.251 19.3667 120.804 20.17 121.071 21.19L118.991 21.79C118.784 21.1833 118.444 20.7133 117.971 20.38C117.504 20.04 116.967 19.87 116.361 19.87C115.674 19.87 115.111 20.0333 114.671 20.36C114.231 20.68 113.904 21.12 113.691 21.68C113.477 22.24 113.367 22.88 113.361 23.6C113.367 24.7133 113.621 25.6133 114.121 26.3C114.627 26.9867 115.374 27.33 116.361 27.33C117.034 27.33 117.577 27.1767 117.991 26.87C118.411 26.5567 118.731 26.11 118.951 25.53L121.071 26.03C120.717 27.0833 120.134 27.8933 119.321 28.46C118.507 29.02 117.521 29.3 116.361 29.3ZM123.015 16.43V14.4H125.105V16.43H123.015ZM123.015 29V18.2H125.105V29H123.015ZM134.288 29C133.608 29.1333 132.941 29.19 132.288 29.17C131.635 29.15 131.051 29.0233 130.538 28.79C130.025 28.5567 129.638 28.19 129.378 27.69C129.145 27.2433 129.018 26.79 128.998 26.33C128.985 25.8633 128.978 25.3367 128.978 24.75V15.2H131.078V24.65C131.078 25.0833 131.081 25.46 131.088 25.78C131.101 26.1 131.171 26.37 131.298 26.59C131.538 27.0033 131.918 27.24 132.438 27.3C132.965 27.3533 133.581 27.33 134.288 27.23V29ZM126.908 19.88V18.2H134.288V19.88H126.908ZM137.732 33.8L139.822 28.11L139.852 29.79L135.142 18.2H137.322L140.842 27.15H140.202L143.562 18.2H145.682L139.722 33.8H137.732Z" fill="white"/>
</svg>
