<svg width="111" height="110" viewBox="0 0 111 110" fill="none" xmlns="http://www.w3.org/2000/svg">
<g filter="url(#filter0_d_111_4059)">
<rect x="19.5" y="19" width="60" height="60" rx="16" fill="#6E9988"/>
<rect x="20.5" y="20" width="58" height="58" rx="15" stroke="#8CC8A8" stroke-width="2"/>
<path fill-rule="evenodd" clip-rule="evenodd" d="M42.3388 36.6394C41.3267 36.7727 40.7907 37.0166 40.409 37.3906C40.0272 37.7646 39.7784 38.2896 39.6423 39.2812C39.5022 40.302 39.5 41.6548 39.5 43.5946V54.3053C39.9858 53.9726 40.5334 53.7195 41.1237 53.5646C41.7839 53.3913 42.5538 53.3915 43.682 53.3919H59.5V43.5946C59.5 41.6548 59.4977 40.302 59.3577 39.2812C59.2216 38.2896 58.9727 37.7646 58.591 37.3906C58.2093 37.0166 57.6734 36.7727 56.6613 36.6394C55.6194 36.5022 54.2385 36.5 52.2586 36.5H46.7414C44.7615 36.5 43.3807 36.5022 42.3388 36.6394ZM42.9483 42.2432C42.9483 41.6835 43.4114 41.2297 43.9828 41.2297H55.0172C55.5886 41.2297 56.0518 41.6835 56.0518 42.2432C56.0518 42.803 55.5886 43.2568 55.0172 43.2568H43.9828C43.4114 43.2568 42.9483 42.803 42.9483 42.2432ZM43.9828 45.9595C43.4114 45.9595 42.9483 46.4132 42.9483 46.973C42.9483 47.5328 43.4114 47.9865 43.9828 47.9865H50.8793C51.4506 47.9865 51.9137 47.5328 51.9137 46.973C51.9137 46.4132 51.4506 45.9595 50.8793 45.9595H43.9828Z" fill="white"/>
<path d="M43.842 55.4189H45.3623H50.8795H59.4991C59.4947 56.8322 59.4722 57.8861 59.358 58.7188C59.2218 59.7104 58.973 60.2356 58.5912 60.6096C58.2095 60.9836 57.6736 61.2273 56.6615 61.3607C55.6196 61.4979 54.2387 61.5001 52.2588 61.5001H46.7416C44.7617 61.5001 43.3809 61.4979 42.339 61.3607C41.3269 61.2273 40.7909 60.9836 40.4092 60.6096C40.0274 60.2356 39.7786 59.7104 39.6425 58.7188C39.5909 58.3433 39.5581 57.9228 39.5371 57.4448C39.8763 56.5056 40.6673 55.7831 41.6594 55.5226C42.0209 55.4277 42.4926 55.4189 43.842 55.4189Z" fill="white"/>
</g>
<defs>
<filter id="filter0_d_111_4059" x="0.5" y="0" width="110" height="110" filterUnits="userSpaceOnUse" color-interpolation-filters="sRGB">
<feFlood flood-opacity="0" result="BackgroundImageFix"/>
<feColorMatrix in="SourceAlpha" type="matrix" values="0 0 0 0 0 0 0 0 0 0 0 0 0 0 0 0 0 0 127 0" result="hardAlpha"/>
<feOffset dx="6" dy="6"/>
<feGaussianBlur stdDeviation="12.5"/>
<feComposite in2="hardAlpha" operator="out"/>
<feColorMatrix type="matrix" values="0 0 0 0 0.431373 0 0 0 0 0.6 0 0 0 0 0.533333 0 0 0 0.34 0"/>
<feBlend mode="normal" in2="BackgroundImageFix" result="effect1_dropShadow_111_4059"/>
<feBlend mode="normal" in="SourceGraphic" in2="effect1_dropShadow_111_4059" result="shape"/>
</filter>
</defs>
</svg>
