<svg width="111" height="110" viewBox="0 0 111 110" fill="none" xmlns="http://www.w3.org/2000/svg">
<g filter="url(#filter0_d_111_4067)">
<rect x="19.5" y="19" width="60" height="60" rx="16" fill="#996E6E"/>
<rect x="20.5" y="20" width="58" height="58" rx="15" stroke="#FF6A6A" stroke-width="2"/>
<g clip-path="url(#clip0_111_4067)">
<path d="M50.9287 45.5531C51.108 45.5531 51.2809 45.5819 51.4474 45.6299L54.553 41.8231C54.7515 41.5798 55.1197 41.5349 55.3598 41.7398C55.5936 41.9351 55.6256 42.2841 55.4303 42.5211L52.3598 46.2863C52.568 46.5744 52.6928 46.9298 52.6928 47.314C52.6928 48.028 52.2638 48.646 51.6523 48.9213H63.7003C64.1421 48.9213 64.5007 48.5627 64.5007 48.1208V37.9874C64.5007 37.5456 64.1421 37.187 63.7003 37.187H48.3961C47.9543 37.187 47.5957 37.5456 47.5957 37.9874V44.6406L48.3193 45.5563H50.9287V45.5531Z" fill="white"/>
<path d="M40.9446 41.1797C42.7553 41.1797 44.2231 39.7118 44.2231 37.9011C44.2231 36.0904 42.7553 34.6226 40.9446 34.6226C39.1339 34.6226 37.666 36.0904 37.666 37.9011C37.666 39.7118 39.1339 41.1797 40.9446 41.1797Z" fill="white"/>
<path d="M44.3068 62.5763C44.3068 63.0182 43.9482 63.3768 43.5064 63.3768H42.1617C41.7199 63.3768 41.3613 63.0182 41.3613 62.5763V55.8656C41.3613 55.6286 41.1692 55.4365 40.9322 55.4365C40.6953 55.4365 40.5032 55.6286 40.5032 55.8656V62.5443C40.5032 63.0022 40.1286 63.3768 39.6708 63.3768H38.3549C37.913 63.3768 37.5544 63.0182 37.5544 62.5763L37.548 46.3757C37.548 46.158 37.3719 45.9787 37.151 45.9787C36.9333 45.9787 36.754 46.1548 36.754 46.3757V52.6062C36.754 53.0481 36.3954 53.4067 35.9536 53.4067H35.3004C34.8586 53.4067 34.5 53.0481 34.5 52.6062V44.0641C34.5 43.0491 35.3228 42.2295 36.3346 42.2295H43.6249C44.4061 42.2295 45.1457 42.5881 45.6323 43.1996L47.5917 45.6713L48.0048 46.1932C48.0048 46.1932 49.8618 46.1932 50.9311 46.1964C51.373 46.1964 51.7316 46.555 51.7316 46.9968V47.634C51.7316 48.0758 51.373 48.4344 50.9311 48.4344H47.4669C47.1243 48.4344 46.801 48.2775 46.5896 48.0085L45.1297 46.1323C45.056 46.0363 44.9376 45.9787 44.8159 45.9787H44.7166C44.4989 45.9787 44.3197 46.1548 44.3197 46.3756L44.3068 62.5763Z" fill="white"/>
</g>
</g>
<defs>
<filter id="filter0_d_111_4067" x="0.5" y="0" width="110" height="110" filterUnits="userSpaceOnUse" color-interpolation-filters="sRGB">
<feFlood flood-opacity="0" result="BackgroundImageFix"/>
<feColorMatrix in="SourceAlpha" type="matrix" values="0 0 0 0 0 0 0 0 0 0 0 0 0 0 0 0 0 0 127 0" result="hardAlpha"/>
<feOffset dx="6" dy="6"/>
<feGaussianBlur stdDeviation="12.5"/>
<feComposite in2="hardAlpha" operator="out"/>
<feColorMatrix type="matrix" values="0 0 0 0 0.6 0 0 0 0 0.431373 0 0 0 0 0.431373 0 0 0 0.34 0"/>
<feBlend mode="normal" in2="BackgroundImageFix" result="effect1_dropShadow_111_4067"/>
<feBlend mode="normal" in="SourceGraphic" in2="effect1_dropShadow_111_4067" result="shape"/>
</filter>
<clipPath id="clip0_111_4067">
<rect width="30" height="30" fill="white" transform="translate(34.5 34)"/>
</clipPath>
</defs>
</svg>
